<svg xmlns="http://www.w3.org/2000/svg" viewBox="0 0 24 24" fill="currentColor" role="img" aria-label="Practitioner-Led">
  <g transform="translate(-18.5436 -86.4866) scale(0.20134)">
    <g>
&#x9;<path fill="currentColor" d="M151.7,437c-20,0-36.3,16.3-36.3,36.3c0,9.6,3.8,18.4,9.9,24.8v43.2l26.4-9.3l26.4,9.3v-43.2&#xA;&#x9;&#x9;c6.1-6.5,9.9-15.2,9.9-24.8C188,453.3,171.7,437,151.7,437z M172.4,533.2l-17.3-6.1v-7.8c0-2-1.6-3.6-3.6-3.6s-3.6,1.6-3.6,3.6v8&#xA;&#x9;&#x9;l-16.8,5.9v-30.1c5.9,4.1,13,6.5,20.7,6.5s14.8-2.4,20.7-6.5V533.2z M151.7,503.8c-16.8,0-30.5-13.7-30.5-30.5&#xA;&#x9;&#x9;c0-16.8,13.7-30.5,30.5-30.5s30.5,13.7,30.5,30.5C182.2,490.1,168.5,503.8,151.7,503.8z"></path>
&#x9;<path fill="currentColor" d="M155.4,457.5l-1.4-4.7l-4.6,0l-1.4,4.7c-1.7,6.1-6.4,10.7-12.4,12.4l-4.7,1.4l0,4.6l4.7,1.4&#xA;&#x9;&#x9;c6.1,1.7,10.7,6.4,12.4,12.4l1.4,4.7h4.6l1.4-4.7c1.7-6.1,6.4-10.7,12.4-12.4l4.7-1.4v-4.6l-4.7-1.4&#xA;&#x9;&#x9;C161.8,468.2,157.1,463.5,155.4,457.5z M151.7,484.9c-2.3-5-6.3-9-11.3-11.3c5-2.3,9-6.3,11.3-11.3c2.3,5,6.3,9,11.3,11.3&#xA;&#x9;&#x9;C158,475.9,154,479.9,151.7,484.9z"></path>
</g>
  </g>
</svg>
