<svg xmlns="http://www.w3.org/2000/svg" viewBox="0 0 24 24" fill="currentColor" role="img" aria-label="Propuesta personalizada">
  <g transform="translate(-90.9936 -42.4075) scale(0.17995)">
    <g>
&#x9;<g>
&#x9;&#x9;<path fill="currentColor" d="M539.7,340.4c-0.5,3.8-1.4,4.6-5.1,4.6c-5.4,0-10.8,0-16.2,0c-3.2,0-4.4-1.2-4.4-4.3c0-14.4,0-28.8,0-43.2&#xA;&#x9;&#x9;&#x9;c0-3.1,1.1-4.2,4.2-4.2c5.3,0,10.7,0,16,0c4.3,0,4.9,0.5,5.4,4.9c1.9-0.3,3.7-0.8,5.6-1c6.5-0.7,12.6,0.7,17.5,4.9&#xA;&#x9;&#x9;&#x9;c3.5,2.9,7.3,4.3,11.7,4.9c2.8,0.4,5.7,0.9,8.5,1.4c5.1,0.9,8.8,4.9,9.4,10c0.1,0.5,0.1,1.1,0.2,1.8c4.4-2.1,8.7-4.1,12.9-6.1&#xA;&#x9;&#x9;&#x9;c2.9-1.4,5.7-2.8,8.6-4.1c5.5-2.5,11.2-0.8,14,4.2c2.7,4.9,1.1,10.7-3.9,13.9c-7,4.6-14,9.2-21.1,13.7&#xA;&#x9;&#x9;&#x9;c-13.7,8.5-28.2,9.8-43.5,4.7C553,344.4,546.4,342.5,539.7,340.4z M539.6,319.5c0,4.1,0.1,8.2,0,12.2c0,1.3,0.4,1.7,1.6,2.1&#xA;&#x9;&#x9;&#x9;c7.7,2.3,15.5,4.7,23.2,7.1c7.6,2.3,15.3,2.4,23.1,0.5c5.8-1.4,10.8-4.4,15.8-7.6c5.8-3.8,11.7-7.6,17.5-11.4&#xA;&#x9;&#x9;&#x9;c1.9-1.2,2.5-3.3,1.5-5c-1-1.8-2.9-2.3-5-1.3c-0.3,0.1-0.7,0.3-1,0.5c-8.8,4.2-17.5,8.3-26.3,12.5c-3.5,1.7-7.2,2.2-11,1.5&#xA;&#x9;&#x9;&#x9;c-1.1-0.2-2.2-0.4-3.4-0.6c-5.5-1-11-1.9-16.4-2.9c-2-0.4-3.1-2.2-2.7-4c0.4-1.7,2.1-2.9,3.9-2.7c1.5,0.2,2.9,0.5,4.4,0.8&#xA;&#x9;&#x9;&#x9;c5.2,0.9,10.4,1.9,15.6,2.7c3,0.4,5.1-1.2,5.5-3.9c0.3-2.4-1.5-4.5-4.4-5c-2.4-0.4-4.8-0.9-7.3-1.2c-5.6-0.8-10.7-2.3-15.2-6.2&#xA;&#x9;&#x9;&#x9;c-5.1-4.4-11.4-4.9-17.8-2.6c-1.1,0.4-1.6,0.9-1.5,2.2C539.6,311.3,539.6,315.4,539.6,319.5z M521.1,300c0,12.8,0,25.5,0,38.1&#xA;&#x9;&#x9;&#x9;c4,0,7.8,0,11.6,0c0-12.8,0-25.4,0-38.1C528.7,300,525,300,521.1,300z"></path>
&#x9;</g>
&#x9;<path fill="currentColor" d="M598.5,258.5l-1.6-5.4l-5.3,0l-1.6,5.4c-2,6.9-7.3,12.3-14.3,14.3l-5.4,1.6l0,5.3l5.4,1.6&#xA;&#x9;&#x9;c6.9,2,12.3,7.3,14.3,14.3l1.6,5.4h5.3l1.6-5.4c2-6.9,7.3-12.3,14.3-14.3l5.4-1.6v-5.3l-5.4-1.6&#xA;&#x9;&#x9;C605.8,270.8,600.5,265.5,598.5,258.5z M594.3,290c-2.6-5.7-7.2-10.3-13-13c5.7-2.6,10.3-7.2,13-13c2.6,5.7,7.2,10.3,13,13&#xA;&#x9;&#x9;C601.5,279.7,596.9,284.3,594.3,290z"></path>
</g>
  </g>
</svg>
